<?xml version="1.0" encoding="utf-8"?>
<!-- Generator: Adobe Illustrator 16.0.0, SVG Export Plug-In . SVG Version: 6.00 Build 0)  -->
<!DOCTYPE svg PUBLIC "-//W3C//DTD SVG 1.1//EN" "http://www.w3.org/Graphics/SVG/1.1/DTD/svg11.dtd">
<svg version="1.1" id="Growing_Business" xmlns="http://www.w3.org/2000/svg" xmlns:xlink="http://www.w3.org/1999/xlink" x="0px"
	 y="0px" width="512px" height="512px" viewBox="0 0 512 512" enable-background="new 0 0 512 512" xml:space="preserve">
<circle id="Background_40_" fill="#E5E5E5" cx="256" cy="256" r="256"/>
<path id="Flour" fill="#28E89A" d="M436.634,438.248c-42.882-18.692-108.77-30.665-182.671-30.665
	c-71.6,0-135.676,11.239-178.597,28.938C121.731,483.138,185.929,512,256.872,512C326.932,512,390.408,483.846,436.634,438.248z"/>
<path id="Shadow_42_" opacity="0.1" d="M286.109,510.229c96.716-11.334,176.945-76.564,209.845-164.86L264.076,118.267l-4.53,1.512
	L230.442,91.48l-6.942-0.314l10,9.208l-7.167,22.958l8,48l-23.303-26.72l-22.239,15.345l7.542,8.625l-1.75-0.167l-11.324-12.64
	L178,157l9.188,10.125l-6.553-0.507L224.5,214.25l1.25,9.25l-13.919-15.664l-32.005-6.675l37.654,38.636L249,376.333l-65.333-62
	l-30.739,16.716L226,418l-23.413,5.429L286.109,510.229z"/>
<g id="Grpwing_Business_1_">
	<path fill="#0072A1" d="M264.564,118.106c-6.797,16.404-19.298,21.132-30.066,20.548
		C238.161,129.557,243.685,118.48,264.564,118.106z"/>
	<path fill="#0072A1" d="M211.03,144.614c-5.045,12.181-14.328,15.69-22.322,15.256C191.425,153.116,195.527,144.892,211.03,144.614
		z"/>
	<path fill="#0072A1" d="M221.269,86.396c7.163,0.702,10.699,5.547,11.981,10.371C229.292,96.427,224.326,95.541,221.269,86.396z"/>
	<path fill="#0072A1" d="M174.348,151.396c7.163,0.702,10.699,5.546,11.981,10.37C182.371,161.426,177.404,160.539,174.348,151.396z
		"/>
	<path fill="#0072A1" d="M265.391,235.498c-7.008,16.906-19.889,21.778-30.99,21.179C238.175,247.3,243.869,235.886,265.391,235.498
		z"/>
	<path fill="#0072A1" d="M353.196,320.124c-18.215,1.76-28.568-7.322-33.256-17.404C329.991,301.646,342.745,301.31,353.196,320.124
		z"/>
	<path fill="#0072A1" d="M394.798,310.631c-21.639,3.479-34.699-6.595-41.063-18.291
		C365.667,290.297,380.882,288.932,394.798,310.631z"/>
	<path fill="#0072A1" d="M336.565,271.064c-4.764,17.67-16.906,24.164-27.994,25.004
		C311.103,286.281,315.276,274.227,336.565,271.064z"/>
	<path fill="#0072A1" d="M210.658,345.287c-38.825,5.777-63.135-15.25-75.458-39.157
		C156.607,302.691,183.984,300.804,210.658,345.287z"/>
	<path fill="#0072A1" d="M216.168,213.523c-22.248,3.309-36.179-8.74-43.241-22.438
		C185.195,189.113,200.882,188.031,216.168,213.523z"/>
	<path fill="#009799" d="M254.854,327.778c-11.425-21.218-23.988-38.151-25.611-54.485c-2.13-21.432,8.909-38.151,16.646-67.202
		c6.354-23.864-30.016-66.252-10.052-109.324c-20.242,24.771-8.703,56.957-7.648,82.804c-10.85-4.926-33.479-14.17-47.851-12.801
		c19.138,2.05,38.824,13.807,47.84,19.836c-0.25,4.842-1.053,9.39-2.748,13.533c-13.217,32.301-24.062,55.346-23.789,76.97
		c0.36,28.236,21.765,75.387,21.242,101.92c-0.24,12.154-9.969,28.441-18.746,46.574h67.468c3.381-8.641,4.695-18.776,1.625-44.102
		c-1.053-8.673-2.98-16.726-5.439-24.275c19.619-55.419,69.949-64.681,83.924-63.545
		C314.358,286.057,269.552,316.689,254.854,327.778z"/>
</g>
</svg>
